<?xml version="1.0" encoding="UTF-8" standalone="no"?>
<!DOCTYPE svg PUBLIC "-//W3C//DTD SVG 1.1//EN"
 "http://www.w3.org/Graphics/SVG/1.1/DTD/svg11.dtd">
<!-- Generated by graphviz version 2.40.1 (0)
 -->
<!-- Title: G Pages: 1 -->
<svg width="368pt" height="436pt"
 viewBox="0.00 0.00 368.00 436.00" xmlns="http://www.w3.org/2000/svg" xmlns:xlink="http://www.w3.org/1999/xlink">
<g id="graph0" class="graph" transform="scale(1 1) rotate(0) translate(4 432)">
<title>G</title>
<polygon fill="#ffffff" stroke="transparent" points="-4,4 -4,-432 364,-432 364,4 -4,4"/>
<g id="clust1" class="cluster">
<title>cluster_root</title>
<g id="a_clust1"><a xlink:title="eventq_index=0&#10;full_system=false&#10;sim_quantum=0&#10;time_sync_enable=false&#10;time_sync_period=100000000000&#10;time_sync_spin_threshold=100000000">
<path fill="#bab6ae" stroke="#000000" d="M20,-8C20,-8 340,-8 340,-8 346,-8 352,-14 352,-20 352,-20 352,-408 352,-408 352,-414 346,-420 340,-420 340,-420 20,-420 20,-420 14,-420 8,-414 8,-408 8,-408 8,-20 8,-20 8,-14 14,-8 20,-8"/>
<text text-anchor="middle" x="180" y="-404.8" font-family="Arial" font-size="14.00" fill="#000000">root </text>
<text text-anchor="middle" x="180" y="-389.8" font-family="Arial" font-size="14.00" fill="#000000">: Root</text>
</a>
</g>
</g>
<g id="clust2" class="cluster">
<title>cluster_system</title>
<g id="a_clust2"><a xlink:title="auto_unlink_shared_backstore=false&#10;cache_line_size=64&#10;eventq_index=0&#10;exit_on_work_items=false&#10;init_param=0&#10;m5ops_base=0&#10;mem_mode=timing&#10;mem_ranges=0:536870912&#10;memories=system.mem_ctrl.dram&#10;mmap_using_noreserve=false&#10;multi_thread=false&#10;&#10;um_work_ids=16&#10;&#13;eadfile=&#10;&#13;edirect_paths=&#10;shadow_rom_ranges=&#10;shared_backstore=&#10;symbolfile=&#10;thermal_components=&#10;thermal_model=Null&#10;work_begin_ckpt_count=0&#10;work_begin_cpu_id_exit=&#45;1&#10;work_begin_exit_count=0&#10;work_cpus_ckpt_count=0&#10;work_end_ckpt_count=0&#10;work_end_exit_count=0&#10;work_item_id=&#45;1&#10;workload=system.workload">
<path fill="#e4e7eb" stroke="#000000" d="M28,-16C28,-16 332,-16 332,-16 338,-16 344,-22 344,-28 344,-28 344,-362 344,-362 344,-368 338,-374 332,-374 332,-374 28,-374 28,-374 22,-374 16,-368 16,-362 16,-362 16,-28 16,-28 16,-22 22,-16 28,-16"/>
<text text-anchor="middle" x="180" y="-358.8" font-family="Arial" font-size="14.00" fill="#000000">system </text>
<text text-anchor="middle" x="180" y="-343.8" font-family="Arial" font-size="14.00" fill="#000000">: System</text>
</a>
</g>
</g>
<g id="clust6" class="cluster">
<title>cluster_system_cpu</title>
<g id="a_clust6"><a xlink:title="branchPred=Null&#10;checker=Null&#10;clk_domain=system.clk_domain&#10;cpu_id=&#45;1&#10;decoder=system.cpu.decoder&#10;do_checkpoint_insts=true&#10;do_statistics_insts=true&#10;eventq_index=0&#10;function_trace=false&#10;function_trace_start=0&#10;interrupts=system.cpu.interrupts&#10;isa=system.cpu.isa&#10;max_insts_all_threads=0&#10;max_insts_any_thread=0&#10;mmu=system.cpu.mmu&#10;&#10;umThreads=1&#10;power_gating_on_idle=false&#10;power_model=&#10;power_state=system.cpu.power_state&#10;progress_interval=0&#10;pwr_gating_latency=300&#10;simpoint_start_insts=&#10;socket_id=0&#10;switched_out=false&#10;syscallRetryLatency=10000&#10;system=system&#10;tracer=system.cpu.tracer&#10;workload=system.cpu.workload">
<path fill="#bbc6d9" stroke="#000000" d="M36,-24C36,-24 236,-24 236,-24 242,-24 248,-30 248,-36 248,-36 248,-102 248,-102 248,-108 242,-114 236,-114 236,-114 36,-114 36,-114 30,-114 24,-108 24,-102 24,-102 24,-36 24,-36 24,-30 30,-24 36,-24"/>
<text text-anchor="middle" x="136" y="-98.8" font-family="Arial" font-size="14.00" fill="#000000">cpu </text>
<text text-anchor="middle" x="136" y="-83.8" font-family="Arial" font-size="14.00" fill="#000000">: RiscvTimingSimpleCPU</text>
</a>
</g>
</g>
<g id="clust23" class="cluster">
<title>cluster_system_membus</title>
<g id="a_clust23"><a xlink:title="clk_domain=system.clk_domain&#10;eventq_index=0&#10;forward_latency=4&#10;frontend_latency=3&#10;header_latency=1&#10;max_outstanding_snoops=512&#10;max_routing_table_size=512&#10;point_of_coherency=true&#10;point_of_unification=true&#10;power_model=&#10;power_state=system.membus.power_state&#10;&#13;esponse_latency=2&#10;snoop_filter=system.membus.snoop_filter&#10;snoop_response_latency=4&#10;system=system&#10;use_default_range=false&#10;width=16">
<path fill="#6f798c" stroke="#000000" d="M72,-154C72,-154 324,-154 324,-154 330,-154 336,-160 336,-166 336,-166 336,-232 336,-232 336,-238 330,-244 324,-244 324,-244 72,-244 72,-244 66,-244 60,-238 60,-232 60,-232 60,-166 60,-166 60,-160 66,-154 72,-154"/>
<text text-anchor="middle" x="198" y="-228.8" font-family="Arial" font-size="14.00" fill="#000000">membus </text>
<text text-anchor="middle" x="198" y="-213.8" font-family="Arial" font-size="14.00" fill="#000000">: SystemXBar</text>
</a>
</g>
</g>
<g id="clust26" class="cluster">
<title>cluster_system_mem_ctrl</title>
<g id="a_clust26"><a xlink:title="clk_domain=system.clk_domain&#10;command_window=10000&#10;disable_sanity_check=false&#10;dram=system.mem_ctrl.dram&#10;eventq_index=0&#10;mem_sched_policy=frfcfs&#10;min_reads_per_switch=16&#10;min_writes_per_switch=16&#10;power_model=&#10;power_state=system.mem_ctrl.power_state&#10;qos_policy=Null&#10;qos_priorities=1&#10;qos_priority_escalation=false&#10;qos_q_policy=fifo&#10;qos_requestors= &#160;&#160;&#160;&#160;&#160;&#160;&#160;&#160;&#160;&#160;&#160;&#160;&#160;&#160;&#10;qos_syncro_scheduler=false&#10;qos_turnaround_policy=Null&#10;static_backend_latency=10000&#10;static_frontend_latency=10000&#10;system=system&#10;write_high_thresh_perc=85&#10;write_low_thresh_perc=50">
<path fill="#bab6ae" stroke="#000000" d="M268,-24C268,-24 324,-24 324,-24 330,-24 336,-30 336,-36 336,-36 336,-102 336,-102 336,-108 330,-114 324,-114 324,-114 268,-114 268,-114 262,-114 256,-108 256,-102 256,-102 256,-36 256,-36 256,-30 262,-24 268,-24"/>
<text text-anchor="middle" x="296" y="-98.8" font-family="Arial" font-size="14.00" fill="#000000">mem_ctrl </text>
<text text-anchor="middle" x="296" y="-83.8" font-family="Arial" font-size="14.00" fill="#000000">: MemCtrl</text>
</a>
</g>
</g>
<!-- system_system_port -->
<g id="node1" class="node">
<title>system_system_port</title>
<path fill="#b6b8bc" stroke="#000000" d="M162,-328C162,-328 90,-328 90,-328 84,-328 78,-322 78,-316 78,-316 78,-304 78,-304 78,-298 84,-292 90,-292 90,-292 162,-292 162,-292 168,-292 174,-298 174,-304 174,-304 174,-316 174,-316 174,-322 168,-328 162,-328"/>
<text text-anchor="middle" x="126" y="-306.3" font-family="Arial" font-size="14.00" fill="#000000">system_port</text>
</g>
<!-- system_membus_cpu_side_ports -->
<g id="node4" class="node">
<title>system_membus_cpu_side_ports</title>
<path fill="#586070" stroke="#000000" d="M172,-198C172,-198 80,-198 80,-198 74,-198 68,-192 68,-186 68,-186 68,-174 68,-174 68,-168 74,-162 80,-162 80,-162 172,-162 172,-162 178,-162 184,-168 184,-174 184,-174 184,-186 184,-186 184,-192 178,-198 172,-198"/>
<text text-anchor="middle" x="126" y="-176.3" font-family="Arial" font-size="14.00" fill="#000000">cpu_side_ports</text>
</g>
<!-- system_system_port&#45;&gt;system_membus_cpu_side_ports -->
<g id="edge1" class="edge">
<title>system_system_port&#45;&gt;system_membus_cpu_side_ports</title>
<path fill="none" stroke="#000000" d="M126,-291.9241C126,-270.3139 126,-233.8868 126,-208.4801"/>
<polygon fill="#000000" stroke="#000000" points="129.5001,-208.3415 126,-198.3415 122.5001,-208.3415 129.5001,-208.3415"/>
</g>
<!-- system_cpu_icache_port -->
<g id="node2" class="node">
<title>system_cpu_icache_port</title>
<path fill="#959ead" stroke="#000000" d="M228,-68C228,-68 160,-68 160,-68 154,-68 148,-62 148,-56 148,-56 148,-44 148,-44 148,-38 154,-32 160,-32 160,-32 228,-32 228,-32 234,-32 240,-38 240,-44 240,-44 240,-56 240,-56 240,-62 234,-68 228,-68"/>
<text text-anchor="middle" x="194" y="-46.3" font-family="Arial" font-size="14.00" fill="#000000">icache_port</text>
</g>
<!-- system_cpu_dcache_port -->
<g id="node3" class="node">
<title>system_cpu_dcache_port</title>
<path fill="#959ead" stroke="#000000" d="M118,-68C118,-68 44,-68 44,-68 38,-68 32,-62 32,-56 32,-56 32,-44 32,-44 32,-38 38,-32 44,-32 44,-32 118,-32 118,-32 124,-32 130,-38 130,-44 130,-44 130,-56 130,-56 130,-62 124,-68 118,-68"/>
<text text-anchor="middle" x="81" y="-46.3" font-family="Arial" font-size="14.00" fill="#000000">dcache_port</text>
</g>
<!-- system_membus_cpu_side_ports&#45;&gt;system_cpu_icache_port -->
<g id="edge2" class="edge">
<title>system_membus_cpu_side_ports&#45;&gt;system_cpu_icache_port</title>
<path fill="none" stroke="#000000" d="M140.2058,-152.8418C153.4651,-127.4932 172.8869,-90.3633 184.406,-68.3415"/>
<polygon fill="#000000" stroke="#000000" points="136.9888,-151.4408 135.4551,-161.9241 143.1915,-154.6853 136.9888,-151.4408"/>
</g>
<!-- system_membus_cpu_side_ports&#45;&gt;system_cpu_dcache_port -->
<g id="edge3" class="edge">
<title>system_membus_cpu_side_ports&#45;&gt;system_cpu_dcache_port</title>
<path fill="none" stroke="#000000" d="M116.3662,-152.1691C107.5985,-126.8401 94.9048,-90.1693 87.349,-68.3415"/>
<polygon fill="#000000" stroke="#000000" points="113.1643,-153.6191 119.7429,-161.9241 119.7792,-151.3293 113.1643,-153.6191"/>
</g>
<!-- system_membus_mem_side_ports -->
<g id="node5" class="node">
<title>system_membus_mem_side_ports</title>
<path fill="#586070" stroke="#000000" d="M315.5,-198C315.5,-198 214.5,-198 214.5,-198 208.5,-198 202.5,-192 202.5,-186 202.5,-186 202.5,-174 202.5,-174 202.5,-168 208.5,-162 214.5,-162 214.5,-162 315.5,-162 315.5,-162 321.5,-162 327.5,-168 327.5,-174 327.5,-174 327.5,-186 327.5,-186 327.5,-192 321.5,-198 315.5,-198"/>
<text text-anchor="middle" x="265" y="-176.3" font-family="Arial" font-size="14.00" fill="#000000">mem_side_ports</text>
</g>
<!-- system_mem_ctrl_port -->
<g id="node6" class="node">
<title>system_mem_ctrl_port</title>
<path fill="#94918b" stroke="#000000" d="M306,-68C306,-68 276,-68 276,-68 270,-68 264,-62 264,-56 264,-56 264,-44 264,-44 264,-38 270,-32 276,-32 276,-32 306,-32 306,-32 312,-32 318,-38 318,-44 318,-44 318,-56 318,-56 318,-62 312,-68 306,-68"/>
<text text-anchor="middle" x="291" y="-46.3" font-family="Arial" font-size="14.00" fill="#000000">port</text>
</g>
<!-- system_membus_mem_side_ports&#45;&gt;system_mem_ctrl_port -->
<g id="edge4" class="edge">
<title>system_membus_mem_side_ports&#45;&gt;system_mem_ctrl_port</title>
<path fill="none" stroke="#000000" d="M268.6152,-161.9241C272.9372,-140.3139 280.2226,-103.8868 285.304,-78.4801"/>
<polygon fill="#000000" stroke="#000000" points="288.8025,-78.8338 287.3317,-68.3415 281.9384,-77.4609 288.8025,-78.8338"/>
</g>
</g>
</svg>
