<?xml version="1.0" encoding="UTF-8" standalone="no"?>
<!DOCTYPE svg PUBLIC "-//W3C//DTD SVG 1.1//EN"
 "http://www.w3.org/Graphics/SVG/1.1/DTD/svg11.dtd">
<!-- Generated by graphviz version 2.40.1 (0)
 -->
<!-- Title: G Pages: 1 -->
<svg width="692pt" height="458pt"
 viewBox="0.00 0.00 692.00 458.00" xmlns="http://www.w3.org/2000/svg" xmlns:xlink="http://www.w3.org/1999/xlink">
<g id="graph0" class="graph" transform="scale(1 1) rotate(0) translate(4 454)">
<title>G</title>
<polygon fill="#ffffff" stroke="transparent" points="-4,4 -4,-454 688,-454 688,4 -4,4"/>
<g id="clust1" class="cluster">
<title>cluster_root</title>
<g id="a_clust1"><a xlink:title="eventq_index=0&#10;full_system=false&#10;sim_quantum=0&#10;time_sync_enable=false&#10;time_sync_period=100000000000&#10;time_sync_spin_threshold=100000000">
<path fill="#bab6ae" stroke="#000000" d="M20,-8C20,-8 664,-8 664,-8 670,-8 676,-14 676,-20 676,-20 676,-430 676,-430 676,-436 670,-442 664,-442 664,-442 20,-442 20,-442 14,-442 8,-436 8,-430 8,-430 8,-20 8,-20 8,-14 14,-8 20,-8"/>
<text text-anchor="middle" x="342" y="-426.8" font-family="Arial" font-size="14.00" fill="#000000">root </text>
<text text-anchor="middle" x="342" y="-411.8" font-family="Arial" font-size="14.00" fill="#000000">: Root</text>
</a>
</g>
</g>
<g id="clust2" class="cluster">
<title>cluster_system</title>
<g id="a_clust2"><a xlink:title="auto_unlink_shared_backstore=false&#10;cache_line_size=64&#10;eventq_index=0&#10;exit_on_work_items=false&#10;init_param=0&#10;m5ops_base=0&#10;mem_mode=timing&#10;mem_ranges=0:536870912&#10;memories=system.mem_ctrl.dram&#10;mmap_using_noreserve=false&#10;multi_thread=false&#10;&#10;um_work_ids=16&#10;&#13;eadfile=&#10;&#13;edirect_paths=&#10;shadow_rom_ranges=&#10;shared_backstore=&#10;symbolfile=&#10;thermal_components=&#10;thermal_model=Null&#10;work_begin_ckpt_count=0&#10;work_begin_cpu_id_exit=&#45;1&#10;work_begin_exit_count=0&#10;work_cpus_ckpt_count=0&#10;work_end_ckpt_count=0&#10;work_end_exit_count=0&#10;work_item_id=&#45;1&#10;workload=system.workload">
<path fill="#e4e7eb" stroke="#000000" d="M28,-16C28,-16 656,-16 656,-16 662,-16 668,-22 668,-28 668,-28 668,-384 668,-384 668,-390 662,-396 656,-396 656,-396 28,-396 28,-396 22,-396 16,-390 16,-384 16,-384 16,-28 16,-28 16,-22 22,-16 28,-16"/>
<text text-anchor="middle" x="342" y="-380.8" font-family="Arial" font-size="14.00" fill="#000000">system </text>
<text text-anchor="middle" x="342" y="-365.8" font-family="Arial" font-size="14.00" fill="#000000">: System</text>
</a>
</g>
</g>
<g id="clust6" class="cluster">
<title>cluster_system_cpu</title>
<g id="a_clust6"><a xlink:title="branchPred=Null&#10;checker=Null&#10;clk_domain=system.clk_domain&#10;cpu_id=&#45;1&#10;decoder=system.cpu.decoder&#10;do_checkpoint_insts=true&#10;do_statistics_insts=true&#10;eventq_index=0&#10;function_trace=false&#10;function_trace_start=0&#10;interrupts=system.cpu.interrupts&#10;isa=system.cpu.isa&#10;max_insts_all_threads=0&#10;max_insts_any_thread=0&#10;mmu=system.cpu.mmu&#10;&#10;umThreads=1&#10;power_gating_on_idle=false&#10;power_model=&#10;power_state=system.cpu.power_state&#10;progress_interval=0&#10;pwr_gating_latency=300&#10;simpoint_start_insts=&#10;socket_id=0&#10;switched_out=false&#10;syscallRetryLatency=10000&#10;system=system&#10;tracer=system.cpu.tracer&#10;workload=system.cpu.workload">
<path fill="#bbc6d9" stroke="#000000" d="M36,-24C36,-24 560,-24 560,-24 566,-24 572,-30 572,-36 572,-36 572,-156 572,-156 572,-162 566,-168 560,-168 560,-168 36,-168 36,-168 30,-168 24,-162 24,-156 24,-156 24,-36 24,-36 24,-30 30,-24 36,-24"/>
<text text-anchor="middle" x="298" y="-152.8" font-family="Arial" font-size="14.00" fill="#000000">cpu </text>
<text text-anchor="middle" x="298" y="-137.8" font-family="Arial" font-size="14.00" fill="#000000">: X86TimingSimpleCPU</text>
</a>
</g>
</g>
<g id="clust17" class="cluster">
<title>cluster_system_cpu_interrupts</title>
<g id="a_clust17"><a xlink:title="clk_domain=system.cpu.interrupts.clk_domain&#10;eventq_index=0&#10;int_latency=1000&#10;pio_latency=100000&#10;system=system">
<path fill="#bab6ae" stroke="#000000" d="M262,-32C262,-32 552,-32 552,-32 558,-32 564,-38 564,-44 564,-44 564,-110 564,-110 564,-116 558,-122 552,-122 552,-122 262,-122 262,-122 256,-122 250,-116 250,-110 250,-110 250,-44 250,-44 250,-38 256,-32 262,-32"/>
<text text-anchor="middle" x="407" y="-106.8" font-family="Arial" font-size="14.00" fill="#000000">interrupts </text>
<text text-anchor="middle" x="407" y="-91.8" font-family="Arial" font-size="14.00" fill="#000000">: X86LocalApic</text>
</a>
</g>
</g>
<g id="clust22" class="cluster">
<title>cluster_system_membus</title>
<g id="a_clust22"><a xlink:title="clk_domain=system.clk_domain&#10;eventq_index=0&#10;forward_latency=4&#10;frontend_latency=3&#10;header_latency=1&#10;max_outstanding_snoops=512&#10;max_routing_table_size=512&#10;point_of_coherency=true&#10;point_of_unification=true&#10;power_model=&#10;power_state=system.membus.power_state&#10;&#13;esponse_latency=2&#10;snoop_filter=system.membus.snoop_filter&#10;snoop_response_latency=4&#10;system=system&#10;use_default_range=false&#10;width=16">
<path fill="#6f798c" stroke="#000000" d="M233,-176C233,-176 485,-176 485,-176 491,-176 497,-182 497,-188 497,-188 497,-254 497,-254 497,-260 491,-266 485,-266 485,-266 233,-266 233,-266 227,-266 221,-260 221,-254 221,-254 221,-188 221,-188 221,-182 227,-176 233,-176"/>
<text text-anchor="middle" x="359" y="-250.8" font-family="Arial" font-size="14.00" fill="#000000">membus </text>
<text text-anchor="middle" x="359" y="-235.8" font-family="Arial" font-size="14.00" fill="#000000">: SystemXBar</text>
</a>
</g>
</g>
<g id="clust25" class="cluster">
<title>cluster_system_mem_ctrl</title>
<g id="a_clust25"><a xlink:title="clk_domain=system.clk_domain&#10;command_window=10000&#10;disable_sanity_check=false&#10;dram=system.mem_ctrl.dram&#10;eventq_index=0&#10;mem_sched_policy=frfcfs&#10;min_reads_per_switch=16&#10;min_writes_per_switch=16&#10;power_model=&#10;power_state=system.mem_ctrl.power_state&#10;qos_policy=Null&#10;qos_priorities=1&#10;qos_priority_escalation=false&#10;qos_q_policy=fifo&#10;qos_requestors= &#160;&#160;&#160;&#160;&#160;&#160;&#160;&#160;&#160;&#160;&#160;&#160;&#160;&#160;&#10;qos_syncro_scheduler=false&#10;qos_turnaround_policy=Null&#10;static_backend_latency=10000&#10;static_frontend_latency=10000&#10;system=system&#10;write_high_thresh_perc=85&#10;write_low_thresh_perc=50">
<path fill="#bab6ae" stroke="#000000" d="M592,-32C592,-32 648,-32 648,-32 654,-32 660,-38 660,-44 660,-44 660,-110 660,-110 660,-116 654,-122 648,-122 648,-122 592,-122 592,-122 586,-122 580,-116 580,-110 580,-110 580,-44 580,-44 580,-38 586,-32 592,-32"/>
<text text-anchor="middle" x="620" y="-106.8" font-family="Arial" font-size="14.00" fill="#000000">mem_ctrl </text>
<text text-anchor="middle" x="620" y="-91.8" font-family="Arial" font-size="14.00" fill="#000000">: MemCtrl</text>
</a>
</g>
</g>
<!-- system_system_port -->
<g id="node1" class="node">
<title>system_system_port</title>
<path fill="#b6b8bc" stroke="#000000" d="M323,-350C323,-350 251,-350 251,-350 245,-350 239,-344 239,-338 239,-338 239,-326 239,-326 239,-320 245,-314 251,-314 251,-314 323,-314 323,-314 329,-314 335,-320 335,-326 335,-326 335,-338 335,-338 335,-344 329,-350 323,-350"/>
<text text-anchor="middle" x="287" y="-328.3" font-family="Arial" font-size="14.00" fill="#000000">system_port</text>
</g>
<!-- system_membus_cpu_side_ports -->
<g id="node7" class="node">
<title>system_membus_cpu_side_ports</title>
<path fill="#586070" stroke="#000000" d="M333,-220C333,-220 241,-220 241,-220 235,-220 229,-214 229,-208 229,-208 229,-196 229,-196 229,-190 235,-184 241,-184 241,-184 333,-184 333,-184 339,-184 345,-190 345,-196 345,-196 345,-208 345,-208 345,-214 339,-220 333,-220"/>
<text text-anchor="middle" x="287" y="-198.3" font-family="Arial" font-size="14.00" fill="#000000">cpu_side_ports</text>
</g>
<!-- system_system_port&#45;&gt;system_membus_cpu_side_ports -->
<g id="edge1" class="edge">
<title>system_system_port&#45;&gt;system_membus_cpu_side_ports</title>
<path fill="none" stroke="#000000" d="M287,-313.9241C287,-292.3139 287,-255.8868 287,-230.4801"/>
<polygon fill="#000000" stroke="#000000" points="290.5001,-230.3415 287,-220.3415 283.5001,-230.3415 290.5001,-230.3415"/>
</g>
<!-- system_cpu_icache_port -->
<g id="node2" class="node">
<title>system_cpu_icache_port</title>
<path fill="#959ead" stroke="#000000" d="M228,-76C228,-76 160,-76 160,-76 154,-76 148,-70 148,-64 148,-64 148,-52 148,-52 148,-46 154,-40 160,-40 160,-40 228,-40 228,-40 234,-40 240,-46 240,-52 240,-52 240,-64 240,-64 240,-70 234,-76 228,-76"/>
<text text-anchor="middle" x="194" y="-54.3" font-family="Arial" font-size="14.00" fill="#000000">icache_port</text>
</g>
<!-- system_cpu_dcache_port -->
<g id="node3" class="node">
<title>system_cpu_dcache_port</title>
<path fill="#959ead" stroke="#000000" d="M118,-76C118,-76 44,-76 44,-76 38,-76 32,-70 32,-64 32,-64 32,-52 32,-52 32,-46 38,-40 44,-40 44,-40 118,-40 118,-40 124,-40 130,-46 130,-52 130,-52 130,-64 130,-64 130,-70 124,-76 118,-76"/>
<text text-anchor="middle" x="81" y="-54.3" font-family="Arial" font-size="14.00" fill="#000000">dcache_port</text>
</g>
<!-- system_cpu_interrupts_int_requestor -->
<g id="node4" class="node">
<title>system_cpu_interrupts_int_requestor</title>
<path fill="#94918b" stroke="#000000" d="M347.5,-76C347.5,-76 270.5,-76 270.5,-76 264.5,-76 258.5,-70 258.5,-64 258.5,-64 258.5,-52 258.5,-52 258.5,-46 264.5,-40 270.5,-40 270.5,-40 347.5,-40 347.5,-40 353.5,-40 359.5,-46 359.5,-52 359.5,-52 359.5,-64 359.5,-64 359.5,-70 353.5,-76 347.5,-76"/>
<text text-anchor="middle" x="309" y="-54.3" font-family="Arial" font-size="14.00" fill="#000000">int_requestor</text>
</g>
<!-- system_cpu_interrupts_int_responder -->
<g id="node5" class="node">
<title>system_cpu_interrupts_int_responder</title>
<path fill="#94918b" stroke="#000000" d="M544,-76C544,-76 462,-76 462,-76 456,-76 450,-70 450,-64 450,-64 450,-52 450,-52 450,-46 456,-40 462,-40 462,-40 544,-40 544,-40 550,-40 556,-46 556,-52 556,-52 556,-64 556,-64 556,-70 550,-76 544,-76"/>
<text text-anchor="middle" x="503" y="-54.3" font-family="Arial" font-size="14.00" fill="#000000">int_responder</text>
</g>
<!-- system_cpu_interrupts_pio -->
<g id="node6" class="node">
<title>system_cpu_interrupts_pio</title>
<path fill="#94918b" stroke="#000000" d="M420,-76C420,-76 390,-76 390,-76 384,-76 378,-70 378,-64 378,-64 378,-52 378,-52 378,-46 384,-40 390,-40 390,-40 420,-40 420,-40 426,-40 432,-46 432,-52 432,-52 432,-64 432,-64 432,-70 426,-76 420,-76"/>
<text text-anchor="middle" x="405" y="-54.3" font-family="Arial" font-size="14.00" fill="#000000">pio</text>
</g>
<!-- system_membus_cpu_side_ports&#45;&gt;system_cpu_icache_port -->
<g id="edge2" class="edge">
<title>system_membus_cpu_side_ports&#45;&gt;system_cpu_icache_port</title>
<path fill="none" stroke="#000000" d="M253.8261,-176.7632C251.0125,-173.9649 248.3494,-171.027 246,-168 223.5936,-139.1313 207.7235,-99.0456 199.788,-76.0872"/>
<polygon fill="#000000" stroke="#000000" points="251.7768,-179.6327 261.5134,-183.8098 256.5068,-174.4725 251.7768,-179.6327"/>
</g>
<!-- system_membus_cpu_side_ports&#45;&gt;system_cpu_dcache_port -->
<g id="edge3" class="edge">
<title>system_membus_cpu_side_ports&#45;&gt;system_cpu_dcache_port</title>
<path fill="none" stroke="#000000" d="M218.9113,-191.98C186.4048,-186.0935 151.8302,-177.8693 139,-168 108.7113,-144.7012 92.5797,-101.0356 85.5079,-76.3045"/>
<polygon fill="#000000" stroke="#000000" points="218.4527,-195.4529 228.9067,-193.731 219.6607,-188.5579 218.4527,-195.4529"/>
</g>
<!-- system_membus_cpu_side_ports&#45;&gt;system_cpu_interrupts_int_requestor -->
<g id="edge4" class="edge">
<title>system_membus_cpu_side_ports&#45;&gt;system_cpu_interrupts_int_requestor</title>
<path fill="none" stroke="#000000" d="M291.3002,-173.8531C295.7228,-144.905 302.4794,-100.6805 306.2363,-76.0896"/>
<polygon fill="#000000" stroke="#000000" points="287.8368,-173.3484 289.7863,-183.7623 294.7565,-174.4056 287.8368,-173.3484"/>
</g>
<!-- system_membus_mem_side_ports -->
<g id="node8" class="node">
<title>system_membus_mem_side_ports</title>
<path fill="#586070" stroke="#000000" d="M476.5,-220C476.5,-220 375.5,-220 375.5,-220 369.5,-220 363.5,-214 363.5,-208 363.5,-208 363.5,-196 363.5,-196 363.5,-190 369.5,-184 375.5,-184 375.5,-184 476.5,-184 476.5,-184 482.5,-184 488.5,-190 488.5,-196 488.5,-196 488.5,-208 488.5,-208 488.5,-214 482.5,-220 476.5,-220"/>
<text text-anchor="middle" x="426" y="-198.3" font-family="Arial" font-size="14.00" fill="#000000">mem_side_ports</text>
</g>
<!-- system_membus_mem_side_ports&#45;&gt;system_cpu_interrupts_int_responder -->
<g id="edge6" class="edge">
<title>system_membus_mem_side_ports&#45;&gt;system_cpu_interrupts_int_responder</title>
<path fill="none" stroke="#000000" d="M435.7521,-183.7623C449.0591,-158.8764 473.0116,-114.0822 488.4467,-85.2165"/>
<polygon fill="#000000" stroke="#000000" points="491.6981,-86.5585 493.3271,-76.0896 485.5252,-83.2577 491.6981,-86.5585"/>
</g>
<!-- system_membus_mem_side_ports&#45;&gt;system_cpu_interrupts_pio -->
<g id="edge5" class="edge">
<title>system_membus_mem_side_ports&#45;&gt;system_cpu_interrupts_pio</title>
<path fill="none" stroke="#000000" d="M423.3403,-183.7623C419.7585,-159.201 413.3486,-115.2474 409.135,-86.3541"/>
<polygon fill="#000000" stroke="#000000" points="412.5446,-85.4798 407.6381,-76.0896 405.6179,-86.4901 412.5446,-85.4798"/>
</g>
<!-- system_mem_ctrl_port -->
<g id="node9" class="node">
<title>system_mem_ctrl_port</title>
<path fill="#94918b" stroke="#000000" d="M630,-76C630,-76 600,-76 600,-76 594,-76 588,-70 588,-64 588,-64 588,-52 588,-52 588,-46 594,-40 600,-40 600,-40 630,-40 630,-40 636,-40 642,-46 642,-52 642,-52 642,-64 642,-64 642,-70 636,-76 630,-76"/>
<text text-anchor="middle" x="615" y="-54.3" font-family="Arial" font-size="14.00" fill="#000000">port</text>
</g>
<!-- system_membus_mem_side_ports&#45;&gt;system_mem_ctrl_port -->
<g id="edge7" class="edge">
<title>system_membus_mem_side_ports&#45;&gt;system_mem_ctrl_port</title>
<path fill="none" stroke="#000000" d="M488.8418,-192.6402C520.9308,-186.7646 555.7472,-178.3415 568,-168 592.5791,-147.2549 604.6205,-111.3504 610.2984,-86.2215"/>
<polygon fill="#000000" stroke="#000000" points="613.7758,-86.6872 612.3601,-76.1874 606.919,-85.2783 613.7758,-86.6872"/>
</g>
</g>
</svg>
