<?xml version="1.0" encoding="UTF-8" standalone="no"?>
<!DOCTYPE svg PUBLIC "-//W3C//DTD SVG 1.1//EN"
 "http://www.w3.org/Graphics/SVG/1.1/DTD/svg11.dtd">
<!-- Generated by graphviz version 2.40.1 (0)
 -->
<!-- Title: G Pages: 1 -->
<svg width="888pt" height="718pt"
 viewBox="0.00 0.00 888.00 718.00" xmlns="http://www.w3.org/2000/svg" xmlns:xlink="http://www.w3.org/1999/xlink">
<g id="graph0" class="graph" transform="scale(1 1) rotate(0) translate(4 714)">
<title>G</title>
<polygon fill="#ffffff" stroke="transparent" points="-4,4 -4,-714 884,-714 884,4 -4,4"/>
<g id="clust1" class="cluster">
<title>cluster_root</title>
<g id="a_clust1"><a xlink:title="eventq_index=0&#10;full_system=false&#10;sim_quantum=0&#10;time_sync_enable=false&#10;time_sync_period=100000000000&#10;time_sync_spin_threshold=100000000">
<path fill="#bab6ae" stroke="#000000" d="M20,-8C20,-8 860,-8 860,-8 866,-8 872,-14 872,-20 872,-20 872,-690 872,-690 872,-696 866,-702 860,-702 860,-702 20,-702 20,-702 14,-702 8,-696 8,-690 8,-690 8,-20 8,-20 8,-14 14,-8 20,-8"/>
<text text-anchor="middle" x="440" y="-686.8" font-family="Arial" font-size="14.00" fill="#000000">root </text>
<text text-anchor="middle" x="440" y="-671.8" font-family="Arial" font-size="14.00" fill="#000000">: Root</text>
</a>
</g>
</g>
<g id="clust2" class="cluster">
<title>cluster_system</title>
<g id="a_clust2"><a xlink:title="auto_unlink_shared_backstore=false&#10;cache_line_size=64&#10;eventq_index=0&#10;exit_on_work_items=false&#10;init_param=0&#10;m5ops_base=0&#10;mem_mode=timing&#10;mem_ranges=0:536870912&#10;memories=system.mem_ctrl.dram&#10;mmap_using_noreserve=false&#10;multi_thread=false&#10;&#10;um_work_ids=16&#10;&#13;eadfile=&#10;&#13;edirect_paths=&#10;shadow_rom_ranges=&#10;shared_backstore=&#10;symbolfile=&#10;thermal_components=&#10;thermal_model=Null&#10;work_begin_ckpt_count=0&#10;work_begin_cpu_id_exit=&#45;1&#10;work_begin_exit_count=0&#10;work_cpus_ckpt_count=0&#10;work_end_ckpt_count=0&#10;work_end_exit_count=0&#10;work_item_id=&#45;1&#10;workload=system.workload">
<path fill="#e4e7eb" stroke="#000000" d="M28,-16C28,-16 852,-16 852,-16 858,-16 864,-22 864,-28 864,-28 864,-644 864,-644 864,-650 858,-656 852,-656 852,-656 28,-656 28,-656 22,-656 16,-650 16,-644 16,-644 16,-28 16,-28 16,-22 22,-16 28,-16"/>
<text text-anchor="middle" x="440" y="-640.8" font-family="Arial" font-size="14.00" fill="#000000">system </text>
<text text-anchor="middle" x="440" y="-625.8" font-family="Arial" font-size="14.00" fill="#000000">: System</text>
</a>
</g>
</g>
<g id="clust6" class="cluster">
<title>cluster_system_cpu</title>
<g id="a_clust6"><a xlink:title="branchPred=Null&#10;checker=Null&#10;clk_domain=system.clk_domain&#10;cpu_id=&#45;1&#10;decoder=system.cpu.decoder&#10;do_checkpoint_insts=true&#10;do_statistics_insts=true&#10;eventq_index=0&#10;function_trace=false&#10;function_trace_start=0&#10;interrupts=system.cpu.interrupts&#10;isa=system.cpu.isa&#10;max_insts_all_threads=0&#10;max_insts_any_thread=0&#10;mmu=system.cpu.mmu&#10;&#10;umThreads=1&#10;power_gating_on_idle=false&#10;power_model=&#10;power_state=system.cpu.power_state&#10;progress_interval=0&#10;pwr_gating_latency=300&#10;simpoint_start_insts=&#10;socket_id=0&#10;switched_out=false&#10;syscallRetryLatency=10000&#10;system=system&#10;tracer=system.cpu.tracer&#10;workload=system.cpu.workload">
<path fill="#bbc6d9" stroke="#000000" d="M320,-24C320,-24 844,-24 844,-24 850,-24 856,-30 856,-36 856,-36 856,-286 856,-286 856,-292 850,-298 844,-298 844,-298 320,-298 320,-298 314,-298 308,-292 308,-286 308,-286 308,-36 308,-36 308,-30 314,-24 320,-24"/>
<text text-anchor="middle" x="582" y="-282.8" font-family="Arial" font-size="14.00" fill="#000000">cpu </text>
<text text-anchor="middle" x="582" y="-267.8" font-family="Arial" font-size="14.00" fill="#000000">: X86TimingSimpleCPU</text>
</a>
</g>
</g>
<g id="clust17" class="cluster">
<title>cluster_system_cpu_icache</title>
<g id="a_clust17"><a xlink:title="addr_ranges=0:18446744073709551615&#10;assoc=4&#10;clk_domain=system.clk_domain&#10;clusivity=mostly_incl&#10;compressor=Null&#10;data_latency=2&#10;demand_mshr_reserve=1&#10;eventq_index=0&#10;is_read_only=true&#10;max_miss_count=0&#10;move_contractions=true&#10;mshrs=4&#10;power_model=&#10;power_state=system.cpu.icache.power_state&#10;prefetcher=Null&#10;&#13;eplace_expansions=true&#10;&#13;eplacement_policy=system.cpu.icache.replacement_policy&#10;&#13;esponse_latency=2&#10;sequential_access=false&#10;size=8192&#10;system=system&#10;tag_latency=2&#10;tags=system.cpu.icache.tags&#10;tgts_per_mshr=20&#10;warmup_percentage=0&#10;write_allocator=Null&#10;write_buffers=8&#10;writeback_clean=true">
<path fill="#bab6ae" stroke="#000000" d="M530,-32C530,-32 700,-32 700,-32 706,-32 712,-38 712,-44 712,-44 712,-110 712,-110 712,-116 706,-122 700,-122 700,-122 530,-122 530,-122 524,-122 518,-116 518,-110 518,-110 518,-44 518,-44 518,-38 524,-32 530,-32"/>
<text text-anchor="middle" x="615" y="-106.8" font-family="Arial" font-size="14.00" fill="#000000">icache </text>
<text text-anchor="middle" x="615" y="-91.8" font-family="Arial" font-size="14.00" fill="#000000">: L1_I_Cache</text>
</a>
</g>
</g>
<g id="clust23" class="cluster">
<title>cluster_system_cpu_dcache</title>
<g id="a_clust23"><a xlink:title="addr_ranges=0:18446744073709551615&#10;assoc=8&#10;clk_domain=system.clk_domain&#10;clusivity=mostly_incl&#10;compressor=Null&#10;data_latency=2&#10;demand_mshr_reserve=1&#10;eventq_index=0&#10;is_read_only=false&#10;max_miss_count=0&#10;move_contractions=true&#10;mshrs=4&#10;power_model=&#10;power_state=system.cpu.dcache.power_state&#10;prefetcher=Null&#10;&#13;eplace_expansions=true&#10;&#13;eplacement_policy=system.cpu.dcache.replacement_policy&#10;&#13;esponse_latency=2&#10;sequential_access=false&#10;size=8192&#10;system=system&#10;tag_latency=2&#10;tags=system.cpu.dcache.tags&#10;tgts_per_mshr=20&#10;warmup_percentage=0&#10;write_allocator=Null&#10;write_buffers=8&#10;writeback_clean=false">
<path fill="#bab6ae" stroke="#000000" d="M328,-32C328,-32 498,-32 498,-32 504,-32 510,-38 510,-44 510,-44 510,-110 510,-110 510,-116 504,-122 498,-122 498,-122 328,-122 328,-122 322,-122 316,-116 316,-110 316,-110 316,-44 316,-44 316,-38 322,-32 328,-32"/>
<text text-anchor="middle" x="413" y="-106.8" font-family="Arial" font-size="14.00" fill="#000000">dcache </text>
<text text-anchor="middle" x="413" y="-91.8" font-family="Arial" font-size="14.00" fill="#000000">: L1_D_Cache</text>
</a>
</g>
</g>
<g id="clust29" class="cluster">
<title>cluster_system_cpu_interrupts</title>
<g id="a_clust29"><a xlink:title="clk_domain=system.cpu.interrupts.clk_domain&#10;eventq_index=0&#10;int_latency=1000&#10;pio_latency=100000&#10;system=system">
<path fill="#bab6ae" stroke="#000000" d="M546,-162C546,-162 836,-162 836,-162 842,-162 848,-168 848,-174 848,-174 848,-240 848,-240 848,-246 842,-252 836,-252 836,-252 546,-252 546,-252 540,-252 534,-246 534,-240 534,-240 534,-174 534,-174 534,-168 540,-162 546,-162"/>
<text text-anchor="middle" x="691" y="-236.8" font-family="Arial" font-size="14.00" fill="#000000">interrupts </text>
<text text-anchor="middle" x="691" y="-221.8" font-family="Arial" font-size="14.00" fill="#000000">: X86LocalApic</text>
</a>
</g>
</g>
<g id="clust34" class="cluster">
<title>cluster_system_l2bus</title>
<g id="a_clust34"><a xlink:title="clk_domain=system.clk_domain&#10;eventq_index=0&#10;forward_latency=0&#10;frontend_latency=1&#10;header_latency=1&#10;max_outstanding_snoops=512&#10;max_routing_table_size=512&#10;point_of_coherency=false&#10;point_of_unification=true&#10;power_model=&#10;power_state=system.l2bus.power_state&#10;&#13;esponse_latency=1&#10;snoop_filter=system.l2bus.snoop_filter&#10;snoop_response_latency=1&#10;system=system&#10;use_default_range=false&#10;width=32">
<path fill="#6f798c" stroke="#000000" d="M36,-162C36,-162 288,-162 288,-162 294,-162 300,-168 300,-174 300,-174 300,-240 300,-240 300,-246 294,-252 288,-252 288,-252 36,-252 36,-252 30,-252 24,-246 24,-240 24,-240 24,-174 24,-174 24,-168 30,-162 36,-162"/>
<text text-anchor="middle" x="162" y="-236.8" font-family="Arial" font-size="14.00" fill="#000000">l2bus </text>
<text text-anchor="middle" x="162" y="-221.8" font-family="Arial" font-size="14.00" fill="#000000">: L2XBar</text>
</a>
</g>
</g>
<g id="clust37" class="cluster">
<title>cluster_system_l2cache</title>
<g id="a_clust37"><a xlink:title="addr_ranges=0:18446744073709551615&#10;assoc=2&#10;clk_domain=system.clk_domain&#10;clusivity=mostly_incl&#10;compressor=Null&#10;data_latency=8&#10;demand_mshr_reserve=1&#10;eventq_index=0&#10;is_read_only=false&#10;max_miss_count=0&#10;move_contractions=true&#10;mshrs=20&#10;power_model=&#10;power_state=system.l2cache.power_state&#10;prefetcher=Null&#10;&#13;eplace_expansions=true&#10;&#13;eplacement_policy=system.l2cache.replacement_policy&#10;&#13;esponse_latency=8&#10;sequential_access=false&#10;size=65536&#10;system=system&#10;tag_latency=8&#10;tags=system.l2cache.tags&#10;tgts_per_mshr=12&#10;warmup_percentage=0&#10;write_allocator=Null&#10;write_buffers=8&#10;writeback_clean=false">
<path fill="#bab6ae" stroke="#000000" d="M218,-306C218,-306 388,-306 388,-306 394,-306 400,-312 400,-318 400,-318 400,-384 400,-384 400,-390 394,-396 388,-396 388,-396 218,-396 218,-396 212,-396 206,-390 206,-384 206,-384 206,-318 206,-318 206,-312 212,-306 218,-306"/>
<text text-anchor="middle" x="303" y="-380.8" font-family="Arial" font-size="14.00" fill="#000000">l2cache </text>
<text text-anchor="middle" x="303" y="-365.8" font-family="Arial" font-size="14.00" fill="#000000">: L2_Cache</text>
</a>
</g>
</g>
<g id="clust43" class="cluster">
<title>cluster_system_membus</title>
<g id="a_clust43"><a xlink:title="clk_domain=system.clk_domain&#10;eventq_index=0&#10;forward_latency=4&#10;frontend_latency=3&#10;header_latency=1&#10;max_outstanding_snoops=512&#10;max_routing_table_size=512&#10;point_of_coherency=true&#10;point_of_unification=true&#10;power_model=&#10;power_state=system.membus.power_state&#10;&#13;esponse_latency=2&#10;snoop_filter=system.membus.snoop_filter&#10;snoop_response_latency=4&#10;system=system&#10;use_default_range=false&#10;width=16">
<path fill="#6f798c" stroke="#000000" d="M539,-436C539,-436 791,-436 791,-436 797,-436 803,-442 803,-448 803,-448 803,-514 803,-514 803,-520 797,-526 791,-526 791,-526 539,-526 539,-526 533,-526 527,-520 527,-514 527,-514 527,-448 527,-448 527,-442 533,-436 539,-436"/>
<text text-anchor="middle" x="665" y="-510.8" font-family="Arial" font-size="14.00" fill="#000000">membus </text>
<text text-anchor="middle" x="665" y="-495.8" font-family="Arial" font-size="14.00" fill="#000000">: SystemXBar</text>
</a>
</g>
</g>
<g id="clust46" class="cluster">
<title>cluster_system_mem_ctrl</title>
<g id="a_clust46"><a xlink:title="clk_domain=system.clk_domain&#10;command_window=10000&#10;disable_sanity_check=false&#10;dram=system.mem_ctrl.dram&#10;eventq_index=0&#10;mem_sched_policy=frfcfs&#10;min_reads_per_switch=16&#10;min_writes_per_switch=16&#10;power_model=&#10;power_state=system.mem_ctrl.power_state&#10;qos_policy=Null&#10;qos_priorities=1&#10;qos_priority_escalation=false&#10;qos_q_policy=fifo&#10;qos_requestors= &#160;&#160;&#160;&#160;&#160;&#160;&#160;&#160;&#160;&#160;&#160;&#160;&#160;&#160;&#10;qos_syncro_scheduler=false&#10;qos_turnaround_policy=Null&#10;static_backend_latency=10000&#10;static_frontend_latency=10000&#10;system=system&#10;write_high_thresh_perc=85&#10;write_low_thresh_perc=50">
<path fill="#bab6ae" stroke="#000000" d="M757,-306C757,-306 813,-306 813,-306 819,-306 825,-312 825,-318 825,-318 825,-384 825,-384 825,-390 819,-396 813,-396 813,-396 757,-396 757,-396 751,-396 745,-390 745,-384 745,-384 745,-318 745,-318 745,-312 751,-306 757,-306"/>
<text text-anchor="middle" x="785" y="-380.8" font-family="Arial" font-size="14.00" fill="#000000">mem_ctrl </text>
<text text-anchor="middle" x="785" y="-365.8" font-family="Arial" font-size="14.00" fill="#000000">: MemCtrl</text>
</a>
</g>
</g>
<!-- system_system_port -->
<g id="node1" class="node">
<title>system_system_port</title>
<path fill="#b6b8bc" stroke="#000000" d="M629,-610C629,-610 557,-610 557,-610 551,-610 545,-604 545,-598 545,-598 545,-586 545,-586 545,-580 551,-574 557,-574 557,-574 629,-574 629,-574 635,-574 641,-580 641,-586 641,-586 641,-598 641,-598 641,-604 635,-610 629,-610"/>
<text text-anchor="middle" x="593" y="-588.3" font-family="Arial" font-size="14.00" fill="#000000">system_port</text>
</g>
<!-- system_membus_cpu_side_ports -->
<g id="node15" class="node">
<title>system_membus_cpu_side_ports</title>
<path fill="#586070" stroke="#000000" d="M639,-480C639,-480 547,-480 547,-480 541,-480 535,-474 535,-468 535,-468 535,-456 535,-456 535,-450 541,-444 547,-444 547,-444 639,-444 639,-444 645,-444 651,-450 651,-456 651,-456 651,-468 651,-468 651,-474 645,-480 639,-480"/>
<text text-anchor="middle" x="593" y="-458.3" font-family="Arial" font-size="14.00" fill="#000000">cpu_side_ports</text>
</g>
<!-- system_system_port&#45;&gt;system_membus_cpu_side_ports -->
<g id="edge1" class="edge">
<title>system_system_port&#45;&gt;system_membus_cpu_side_ports</title>
<path fill="none" stroke="#000000" d="M593,-573.9241C593,-552.3139 593,-515.8868 593,-490.4801"/>
<polygon fill="#000000" stroke="#000000" points="596.5001,-490.3415 593,-480.3415 589.5001,-490.3415 596.5001,-490.3415"/>
</g>
<!-- system_cpu_icache_port -->
<g id="node2" class="node">
<title>system_cpu_icache_port</title>
<path fill="#959ead" stroke="#000000" d="M512,-206C512,-206 444,-206 444,-206 438,-206 432,-200 432,-194 432,-194 432,-182 432,-182 432,-176 438,-170 444,-170 444,-170 512,-170 512,-170 518,-170 524,-176 524,-182 524,-182 524,-194 524,-194 524,-200 518,-206 512,-206"/>
<text text-anchor="middle" x="478" y="-184.3" font-family="Arial" font-size="14.00" fill="#000000">icache_port</text>
</g>
<!-- system_cpu_icache_cpu_side -->
<g id="node4" class="node">
<title>system_cpu_icache_cpu_side</title>
<path fill="#94918b" stroke="#000000" d="M692,-76C692,-76 640,-76 640,-76 634,-76 628,-70 628,-64 628,-64 628,-52 628,-52 628,-46 634,-40 640,-40 640,-40 692,-40 692,-40 698,-40 704,-46 704,-52 704,-52 704,-64 704,-64 704,-70 698,-76 692,-76"/>
<text text-anchor="middle" x="666" y="-54.3" font-family="Arial" font-size="14.00" fill="#000000">cpu_side</text>
</g>
<!-- system_cpu_icache_port&#45;&gt;system_cpu_icache_cpu_side -->
<g id="edge2" class="edge">
<title>system_cpu_icache_port&#45;&gt;system_cpu_icache_cpu_side</title>
<path fill="none" stroke="#000000" d="M513.7102,-169.9026C519.1494,-167.2165 524.711,-164.5095 530,-162 569.1804,-143.41 585.2757,-149.2647 619,-122 631.5946,-111.8178 642.528,-97.5022 650.6723,-84.9915"/>
<polygon fill="#000000" stroke="#000000" points="653.7785,-86.6245 656.0936,-76.2857 647.8365,-82.9242 653.7785,-86.6245"/>
</g>
<!-- system_cpu_dcache_port -->
<g id="node3" class="node">
<title>system_cpu_dcache_port</title>
<path fill="#959ead" stroke="#000000" d="M402,-206C402,-206 328,-206 328,-206 322,-206 316,-200 316,-194 316,-194 316,-182 316,-182 316,-176 322,-170 328,-170 328,-170 402,-170 402,-170 408,-170 414,-176 414,-182 414,-182 414,-194 414,-194 414,-200 408,-206 402,-206"/>
<text text-anchor="middle" x="365" y="-184.3" font-family="Arial" font-size="14.00" fill="#000000">dcache_port</text>
</g>
<!-- system_cpu_dcache_cpu_side -->
<g id="node6" class="node">
<title>system_cpu_dcache_cpu_side</title>
<path fill="#94918b" stroke="#000000" d="M490,-76C490,-76 438,-76 438,-76 432,-76 426,-70 426,-64 426,-64 426,-52 426,-52 426,-46 432,-40 438,-40 438,-40 490,-40 490,-40 496,-40 502,-46 502,-52 502,-52 502,-64 502,-64 502,-70 496,-76 490,-76"/>
<text text-anchor="middle" x="464" y="-54.3" font-family="Arial" font-size="14.00" fill="#000000">cpu_side</text>
</g>
<!-- system_cpu_dcache_port&#45;&gt;system_cpu_dcache_cpu_side -->
<g id="edge3" class="edge">
<title>system_cpu_dcache_port&#45;&gt;system_cpu_dcache_cpu_side</title>
<path fill="none" stroke="#000000" d="M379.5133,-169.9201C390.0364,-156.7288 404.5463,-138.3696 417,-122 426.3119,-109.7601 436.4336,-96.0338 444.8909,-84.4412"/>
<polygon fill="#000000" stroke="#000000" points="447.9411,-86.1979 450.9929,-76.052 442.2802,-82.0803 447.9411,-86.1979"/>
</g>
<!-- system_cpu_icache_mem_side -->
<g id="node5" class="node">
<title>system_cpu_icache_mem_side</title>
<path fill="#94918b" stroke="#000000" d="M598,-76C598,-76 538,-76 538,-76 532,-76 526,-70 526,-64 526,-64 526,-52 526,-52 526,-46 532,-40 538,-40 538,-40 598,-40 598,-40 604,-40 610,-46 610,-52 610,-52 610,-64 610,-64 610,-70 604,-76 598,-76"/>
<text text-anchor="middle" x="568" y="-54.3" font-family="Arial" font-size="14.00" fill="#000000">mem_side</text>
</g>
<!-- system_cpu_dcache_mem_side -->
<g id="node7" class="node">
<title>system_cpu_dcache_mem_side</title>
<path fill="#94918b" stroke="#000000" d="M396,-76C396,-76 336,-76 336,-76 330,-76 324,-70 324,-64 324,-64 324,-52 324,-52 324,-46 330,-40 336,-40 336,-40 396,-40 396,-40 402,-40 408,-46 408,-52 408,-52 408,-64 408,-64 408,-70 402,-76 396,-76"/>
<text text-anchor="middle" x="366" y="-54.3" font-family="Arial" font-size="14.00" fill="#000000">mem_side</text>
</g>
<!-- system_cpu_interrupts_int_requestor -->
<g id="node8" class="node">
<title>system_cpu_interrupts_int_requestor</title>
<path fill="#94918b" stroke="#000000" d="M631.5,-206C631.5,-206 554.5,-206 554.5,-206 548.5,-206 542.5,-200 542.5,-194 542.5,-194 542.5,-182 542.5,-182 542.5,-176 548.5,-170 554.5,-170 554.5,-170 631.5,-170 631.5,-170 637.5,-170 643.5,-176 643.5,-182 643.5,-182 643.5,-194 643.5,-194 643.5,-200 637.5,-206 631.5,-206"/>
<text text-anchor="middle" x="593" y="-184.3" font-family="Arial" font-size="14.00" fill="#000000">int_requestor</text>
</g>
<!-- system_cpu_interrupts_int_responder -->
<g id="node9" class="node">
<title>system_cpu_interrupts_int_responder</title>
<path fill="#94918b" stroke="#000000" d="M756,-206C756,-206 674,-206 674,-206 668,-206 662,-200 662,-194 662,-194 662,-182 662,-182 662,-176 668,-170 674,-170 674,-170 756,-170 756,-170 762,-170 768,-176 768,-182 768,-182 768,-194 768,-194 768,-200 762,-206 756,-206"/>
<text text-anchor="middle" x="715" y="-184.3" font-family="Arial" font-size="14.00" fill="#000000">int_responder</text>
</g>
<!-- system_cpu_interrupts_pio -->
<g id="node10" class="node">
<title>system_cpu_interrupts_pio</title>
<path fill="#94918b" stroke="#000000" d="M828,-206C828,-206 798,-206 798,-206 792,-206 786,-200 786,-194 786,-194 786,-182 786,-182 786,-176 792,-170 798,-170 798,-170 828,-170 828,-170 834,-170 840,-176 840,-182 840,-182 840,-194 840,-194 840,-200 834,-206 828,-206"/>
<text text-anchor="middle" x="813" y="-184.3" font-family="Arial" font-size="14.00" fill="#000000">pio</text>
</g>
<!-- system_l2bus_cpu_side_ports -->
<g id="node11" class="node">
<title>system_l2bus_cpu_side_ports</title>
<path fill="#586070" stroke="#000000" d="M280,-206C280,-206 188,-206 188,-206 182,-206 176,-200 176,-194 176,-194 176,-182 176,-182 176,-176 182,-170 188,-170 188,-170 280,-170 280,-170 286,-170 292,-176 292,-182 292,-182 292,-194 292,-194 292,-200 286,-206 280,-206"/>
<text text-anchor="middle" x="234" y="-184.3" font-family="Arial" font-size="14.00" fill="#000000">cpu_side_ports</text>
</g>
<!-- system_l2bus_cpu_side_ports&#45;&gt;system_cpu_icache_mem_side -->
<g id="edge4" class="edge">
<title>system_l2bus_cpu_side_ports&#45;&gt;system_cpu_icache_mem_side</title>
<path fill="none" stroke="#000000" d="M288.8891,-166.6309C293.9623,-164.954 299.0537,-163.3792 304,-162 395.5201,-136.4809 431.9794,-169.9561 514,-122 532.8251,-110.9933 548.1289,-90.9124 557.5749,-76.17"/>
<polygon fill="#000000" stroke="#000000" points="287.5204,-163.4002 279.1982,-169.957 289.7929,-170.0211 287.5204,-163.4002"/>
</g>
<!-- system_l2bus_cpu_side_ports&#45;&gt;system_cpu_dcache_mem_side -->
<g id="edge5" class="edge">
<title>system_l2bus_cpu_side_ports&#45;&gt;system_cpu_dcache_mem_side</title>
<path fill="none" stroke="#000000" d="M259.5606,-162.8267C285.3109,-137.4666 324.4247,-98.9454 347.3763,-76.3415"/>
<polygon fill="#000000" stroke="#000000" points="257.023,-160.4134 252.354,-169.9241 261.9348,-165.4008 257.023,-160.4134"/>
</g>
<!-- system_l2bus_mem_side_ports -->
<g id="node12" class="node">
<title>system_l2bus_mem_side_ports</title>
<path fill="#586070" stroke="#000000" d="M145.5,-206C145.5,-206 44.5,-206 44.5,-206 38.5,-206 32.5,-200 32.5,-194 32.5,-194 32.5,-182 32.5,-182 32.5,-176 38.5,-170 44.5,-170 44.5,-170 145.5,-170 145.5,-170 151.5,-170 157.5,-176 157.5,-182 157.5,-182 157.5,-194 157.5,-194 157.5,-200 151.5,-206 145.5,-206"/>
<text text-anchor="middle" x="95" y="-184.3" font-family="Arial" font-size="14.00" fill="#000000">mem_side_ports</text>
</g>
<!-- system_l2cache_cpu_side -->
<g id="node13" class="node">
<title>system_l2cache_cpu_side</title>
<path fill="#94918b" stroke="#000000" d="M380,-350C380,-350 328,-350 328,-350 322,-350 316,-344 316,-338 316,-338 316,-326 316,-326 316,-320 322,-314 328,-314 328,-314 380,-314 380,-314 386,-314 392,-320 392,-326 392,-326 392,-338 392,-338 392,-344 386,-350 380,-350"/>
<text text-anchor="middle" x="354" y="-328.3" font-family="Arial" font-size="14.00" fill="#000000">cpu_side</text>
</g>
<!-- system_l2cache_cpu_side&#45;&gt;system_l2bus_mem_side_ports -->
<g id="edge6" class="edge">
<title>system_l2cache_cpu_side&#45;&gt;system_l2bus_mem_side_ports</title>
<path fill="none" stroke="#000000" d="M316.9724,-309.5885C313.6757,-308.1895 310.326,-306.9607 307,-306 277.062,-297.3527 193.9783,-313.596 167,-298 131.6293,-277.5524 110.521,-231.9197 101.023,-206.3187"/>
<polygon fill="#000000" stroke="#000000" points="315.5239,-312.7752 326.0588,-313.9005 318.5251,-306.4512 315.5239,-312.7752"/>
</g>
<!-- system_l2cache_mem_side -->
<g id="node14" class="node">
<title>system_l2cache_mem_side</title>
<path fill="#94918b" stroke="#000000" d="M286,-350C286,-350 226,-350 226,-350 220,-350 214,-344 214,-338 214,-338 214,-326 214,-326 214,-320 220,-314 226,-314 226,-314 286,-314 286,-314 292,-314 298,-320 298,-326 298,-326 298,-338 298,-338 298,-344 292,-350 286,-350"/>
<text text-anchor="middle" x="256" y="-328.3" font-family="Arial" font-size="14.00" fill="#000000">mem_side</text>
</g>
<!-- system_membus_cpu_side_ports&#45;&gt;system_cpu_interrupts_int_requestor -->
<g id="edge8" class="edge">
<title>system_membus_cpu_side_ports&#45;&gt;system_cpu_interrupts_int_requestor</title>
<path fill="none" stroke="#000000" d="M593,-433.2535C593,-376.8319 593,-253.0308 593,-206.3233"/>
<polygon fill="#000000" stroke="#000000" points="589.5001,-433.5966 593,-443.5966 596.5001,-433.5967 589.5001,-433.5966"/>
</g>
<!-- system_membus_cpu_side_ports&#45;&gt;system_l2cache_mem_side -->
<g id="edge7" class="edge">
<title>system_membus_cpu_side_ports&#45;&gt;system_l2cache_mem_side</title>
<path fill="none" stroke="#000000" d="M524.6897,-451.5616C452.0252,-439.5332 342.7176,-418.5118 307,-396 289.0911,-384.7125 274.7525,-364.8837 265.895,-350.28"/>
<polygon fill="#000000" stroke="#000000" points="524.2542,-455.0368 534.6883,-453.1984 525.3851,-448.1288 524.2542,-455.0368"/>
</g>
<!-- system_membus_mem_side_ports -->
<g id="node16" class="node">
<title>system_membus_mem_side_ports</title>
<path fill="#586070" stroke="#000000" d="M782.5,-480C782.5,-480 681.5,-480 681.5,-480 675.5,-480 669.5,-474 669.5,-468 669.5,-468 669.5,-456 669.5,-456 669.5,-450 675.5,-444 681.5,-444 681.5,-444 782.5,-444 782.5,-444 788.5,-444 794.5,-450 794.5,-456 794.5,-456 794.5,-468 794.5,-468 794.5,-474 788.5,-480 782.5,-480"/>
<text text-anchor="middle" x="732" y="-458.3" font-family="Arial" font-size="14.00" fill="#000000">mem_side_ports</text>
</g>
<!-- system_membus_mem_side_ports&#45;&gt;system_cpu_interrupts_int_responder -->
<g id="edge10" class="edge">
<title>system_membus_mem_side_ports&#45;&gt;system_cpu_interrupts_int_responder</title>
<path fill="none" stroke="#000000" d="M730.8582,-443.5966C727.9548,-396.801 720.2734,-272.9945 716.7775,-216.6499"/>
<polygon fill="#000000" stroke="#000000" points="720.2495,-216.0873 716.1368,-206.3233 713.2629,-216.5208 720.2495,-216.0873"/>
</g>
<!-- system_membus_mem_side_ports&#45;&gt;system_cpu_interrupts_pio -->
<g id="edge9" class="edge">
<title>system_membus_mem_side_ports&#45;&gt;system_cpu_interrupts_pio</title>
<path fill="none" stroke="#000000" d="M731.8393,-443.7714C731.6674,-404.8429 732.2552,-316.2801 741,-306 751.6199,-293.5157 764.8587,-309.0104 777,-298 800.0529,-277.0943 808.3888,-241.2236 811.3772,-216.1464"/>
<polygon fill="#000000" stroke="#000000" points="814.8662,-216.4285 812.3579,-206.1349 807.8996,-215.7461 814.8662,-216.4285"/>
</g>
<!-- system_mem_ctrl_port -->
<g id="node17" class="node">
<title>system_mem_ctrl_port</title>
<path fill="#94918b" stroke="#000000" d="M796,-350C796,-350 766,-350 766,-350 760,-350 754,-344 754,-338 754,-338 754,-326 754,-326 754,-320 760,-314 766,-314 766,-314 796,-314 796,-314 802,-314 808,-320 808,-326 808,-326 808,-338 808,-338 808,-344 802,-350 796,-350"/>
<text text-anchor="middle" x="781" y="-328.3" font-family="Arial" font-size="14.00" fill="#000000">port</text>
</g>
<!-- system_membus_mem_side_ports&#45;&gt;system_mem_ctrl_port -->
<g id="edge11" class="edge">
<title>system_membus_mem_side_ports&#45;&gt;system_mem_ctrl_port</title>
<path fill="none" stroke="#000000" d="M738.8132,-443.9241C747.0313,-422.1209 760.9344,-385.2352 770.5207,-359.8022"/>
<polygon fill="#000000" stroke="#000000" points="773.8347,-360.9334 774.0867,-350.3415 767.2845,-358.4644 773.8347,-360.9334"/>
</g>
</g>
</svg>
